<svg width="37" height="37" viewBox="0 0 37 37" fill="none" xmlns="http://www.w3.org/2000/svg">
<path fill-rule="evenodd" clip-rule="evenodd" d="M26.6863 24.5125L31.9279 29.7388C32.2198 30.0282 32.3839 30.4223 32.3839 30.8333C32.3839 31.2444 32.2198 31.6384 31.9279 31.9279C31.6384 32.2198 31.2444 32.3839 30.8333 32.3839C30.4223 32.3839 30.0282 32.2198 29.7388 31.9279L24.5125 26.6863C22.358 28.3774 19.6973 29.2951 16.9583 29.2917C10.1468 29.2917 4.625 23.7698 4.625 16.9583C4.625 10.1468 10.1468 4.625 16.9583 4.625C23.7698 4.625 29.2917 10.1468 29.2917 16.9583C29.2951 19.6973 28.3774 22.358 26.6863 24.5125ZM16.9583 7.70833C11.8497 7.70833 7.70833 11.8497 7.70833 16.9583C7.70833 22.067 11.8497 26.2083 16.9583 26.2083C22.067 26.2083 26.2083 22.067 26.2083 16.9583C26.2083 11.8497 22.067 7.70833 16.9583 7.70833Z" fill="#8E8E8E"/>
</svg>
